<svg viewBox="0 0 128 128" xml:space="preserve" xmlns="http://www.w3.org/2000/svg" enable-background="new 0 0 128 128"><path d="M124 121h-7V75.32c0-8.03-4.28-15.59-11.17-19.72l-30-18a22.962 22.962 0 0 0-23.67 0l-30 18C15.28 59.73 11 67.29 11 75.32V121H4c-1.66 0-3 1.34-3 3s1.34 3 3 3h120c1.66 0 3-1.34 3-3s-1.34-3-3-3zM17 75.32c0-5.94 3.16-11.52 8.25-14.58l30-18a16.95 16.95 0 0 1 17.49 0l30 18c5.09 3.05 8.25 8.64 8.25 14.58V121H17V75.32z" fill="#36459b" class="fill-000000"></path><path d="M78 84h-8v-8c0-1.66-1.34-3-3-3h-6c-1.66 0-3 1.34-3 3v8h-8c-1.66 0-3 1.34-3 3v6c0 1.66 1.34 3 3 3h8v8c0 1.66 1.34 3 3 3h6c1.66 0 3-1.34 3-3v-8h8c1.66 0 3-1.34 3-3v-6c0-1.66-1.34-3-3-3z" fill="#36459b" class="fill-000000"></path></svg>